<mxfile host="app.diagrams.net" agent="Mozilla/5.0 (Windows NT 10.0; Win64; x64) AppleWebKit/537.36 (KHTML, like Gecko) Chrome/135.0.0.0 Safari/537.36 Edg/135.0.0.0" version="26.2.14">
  <diagram name="Page-1" id="-o3Vapfo4_f109Qdg1Tp">
    <mxGraphModel dx="687" dy="418" grid="1" gridSize="10" guides="1" tooltips="1" connect="1" arrows="1" fold="1" page="1" pageScale="1" pageWidth="850" pageHeight="1100" math="1" shadow="0">
      <root>
        <mxCell id="0" />
        <mxCell id="1" parent="0" />
        <mxCell id="RrZNLIo5yRisIMxuXypp-1" value="" style="ellipse;whiteSpace=wrap;html=1;aspect=fixed;fillColor=none;" vertex="1" parent="1">
          <mxGeometry x="240" y="120" width="200" height="200" as="geometry" />
        </mxCell>
        <mxCell id="RrZNLIo5yRisIMxuXypp-3" value="" style="endArrow=classic;html=1;rounded=0;" edge="1" parent="1" source="RrZNLIo5yRisIMxuXypp-1">
          <mxGeometry width="50" height="50" relative="1" as="geometry">
            <mxPoint x="360" y="200" as="sourcePoint" />
            <mxPoint x="410" y="150" as="targetPoint" />
          </mxGeometry>
        </mxCell>
        <mxCell id="RrZNLIo5yRisIMxuXypp-4" value="" style="endArrow=classic;html=1;rounded=0;entryX=1;entryY=0;entryDx=0;entryDy=0;" edge="1" parent="1" target="RrZNLIo5yRisIMxuXypp-1">
          <mxGeometry width="50" height="50" relative="1" as="geometry">
            <mxPoint x="340" y="220" as="sourcePoint" />
            <mxPoint x="450" y="350" as="targetPoint" />
          </mxGeometry>
        </mxCell>
        <mxCell id="RrZNLIo5yRisIMxuXypp-7" value="" style="endArrow=none;dashed=1;html=1;rounded=0;entryX=0.83;entryY=-0.037;entryDx=0;entryDy=0;entryPerimeter=0;" edge="1" parent="1">
          <mxGeometry width="50" height="50" relative="1" as="geometry">
            <mxPoint x="340" y="220" as="sourcePoint" />
            <mxPoint x="409.80000000000007" y="218.89000000000004" as="targetPoint" />
          </mxGeometry>
        </mxCell>
        <mxCell id="RrZNLIo5yRisIMxuXypp-8" value="" style="endArrow=none;dashed=1;html=1;dashPattern=1 3;strokeWidth=2;rounded=0;entryX=0.5;entryY=0;entryDx=0;entryDy=0;exitX=0.83;exitY=-0.047;exitDx=0;exitDy=0;exitPerimeter=0;" edge="1" parent="1">
          <mxGeometry width="50" height="50" relative="1" as="geometry">
            <mxPoint x="409.80000000000007" y="218.58999999999997" as="sourcePoint" />
            <mxPoint x="410" y="150" as="targetPoint" />
          </mxGeometry>
        </mxCell>
        <mxCell id="RrZNLIo5yRisIMxuXypp-10" value="$$r\sin\theta$$" style="text;html=1;align=center;verticalAlign=middle;whiteSpace=wrap;rounded=0;" vertex="1" parent="1">
          <mxGeometry x="370" y="180" width="40" height="30" as="geometry" />
        </mxCell>
        <mxCell id="RrZNLIo5yRisIMxuXypp-11" value="" style="triangle;whiteSpace=wrap;html=1;rotation=91;" vertex="1" parent="1">
          <mxGeometry x="330" y="304.91" width="20" height="30" as="geometry" />
        </mxCell>
        <mxCell id="RrZNLIo5yRisIMxuXypp-12" value="" style="endArrow=none;html=1;rounded=0;entryX=1;entryY=0.5;entryDx=0;entryDy=0;" edge="1" parent="1" target="RrZNLIo5yRisIMxuXypp-11">
          <mxGeometry width="50" height="50" relative="1" as="geometry">
            <mxPoint x="340" y="350" as="sourcePoint" />
            <mxPoint x="400" y="290" as="targetPoint" />
          </mxGeometry>
        </mxCell>
        <mxCell id="RrZNLIo5yRisIMxuXypp-13" value="$$r$$" style="text;html=1;align=center;verticalAlign=middle;whiteSpace=wrap;rounded=0;" vertex="1" parent="1">
          <mxGeometry x="350" y="160" width="30" height="30" as="geometry" />
        </mxCell>
        <mxCell id="RrZNLIo5yRisIMxuXypp-14" value="" style="curved=1;endArrow=none;html=1;rounded=0;startArrow=classic;startFill=1;" edge="1" parent="1">
          <mxGeometry width="50" height="50" relative="1" as="geometry">
            <mxPoint x="340" y="110" as="sourcePoint" />
            <mxPoint x="450" y="250" as="targetPoint" />
            <Array as="points">
              <mxPoint x="400" y="110" />
              <mxPoint x="460" y="190" />
            </Array>
          </mxGeometry>
        </mxCell>
        <mxCell id="RrZNLIo5yRisIMxuXypp-15" value="$${\omega}t$$" style="text;html=1;align=center;verticalAlign=middle;whiteSpace=wrap;rounded=0;" vertex="1" parent="1">
          <mxGeometry x="430" y="140" width="40" height="30" as="geometry" />
        </mxCell>
        <mxCell id="RrZNLIo5yRisIMxuXypp-17" value="$$r\cos\theta$$" style="text;html=1;align=center;verticalAlign=middle;whiteSpace=wrap;rounded=0;" vertex="1" parent="1">
          <mxGeometry x="340" y="220" width="70" height="20" as="geometry" />
        </mxCell>
        <mxCell id="RrZNLIo5yRisIMxuXypp-18" value="" style="endArrow=none;dashed=1;html=1;dashPattern=1 3;strokeWidth=2;rounded=0;exitX=0;exitY=0;exitDx=0;exitDy=0;" edge="1" parent="1" source="RrZNLIo5yRisIMxuXypp-17" target="RrZNLIo5yRisIMxuXypp-11">
          <mxGeometry width="50" height="50" relative="1" as="geometry">
            <mxPoint x="370" y="240" as="sourcePoint" />
            <mxPoint x="420" y="190" as="targetPoint" />
          </mxGeometry>
        </mxCell>
        <mxCell id="RrZNLIo5yRisIMxuXypp-19" value="$$r$$" style="text;html=1;align=center;verticalAlign=middle;whiteSpace=wrap;rounded=0;" vertex="1" parent="1">
          <mxGeometry x="310" y="260" width="30" height="30" as="geometry" />
        </mxCell>
      </root>
    </mxGraphModel>
  </diagram>
</mxfile>
